<?xml version="1.0" encoding="UTF-8"?>
<svg xmlns="http://www.w3.org/2000/svg" width="512" height="512" viewBox="0 0 512 512"><path d="M456,232H439.66A936.877,936.877,0,0,0,417.99,56H424a8,8,0,0,0,8-8V16a8,8,0,0,0-8-8H88a8,8,0,0,0-8,8V48a8,8,0,0,0,8,8h6.01A936.877,936.877,0,0,0,72.34,232H56a8,8,0,0,0-8,8v32a8,8,0,0,0,8,8H72.34A936.877,936.877,0,0,0,94.01,456H88a8,8,0,0,0-8,8v32a8,8,0,0,0,8,8H424a8,8,0,0,0,8-8V464a8,8,0,0,0-8-8h-6.01a936.877,936.877,0,0,0,21.67-176H456a8,8,0,0,0,8-8V240A8,8,0,0,0,456,232Zm-32.35,0H375.77A1381.371,1381.371,0,0,0,361.28,56h40.33A920.566,920.566,0,0,1,423.65,232ZM96,24H416V40H96ZM248.03,200.58A56.166,56.166,0,0,0,205.41,232H152.23A1367.114,1367.114,0,0,1,166.88,56H248V200C248,200.19,248.02,200.39,248.03,200.58ZM205.43,280A56.06,56.06,0,0,0,232,306.6V320a8,8,0,0,0,8,8h8V456H166.88a1367.114,1367.114,0,0,1-14.65-176ZM232,256v32a40,40,0,1,1,48,0V256a24,24,0,0,0-48,0Zm16,0a8,8,0,0,1,16,0v56H248Zm16,72h8a8,8,0,0,0,8-8V306.6A56.06,56.06,0,0,0,306.57,280h53.2a1367.114,1367.114,0,0,1-14.65,176H264Zm-.03-127.42c.01-.19.03-.39.03-.58V56h81.12a1367.114,1367.114,0,0,1,14.65,176H306.59A56.166,56.166,0,0,0,263.97,200.58ZM110.39,56h40.33a1381.371,1381.371,0,0,0-14.49,176H88.35A920.566,920.566,0,0,1,110.39,56ZM64,264V248H200.58a55.49,55.49,0,0,0-.58,8,57.174,57.174,0,0,0,.58,8Zm24.35,16h47.88a1381.371,1381.371,0,0,0,14.49,176H110.39A920.566,920.566,0,0,1,88.35,280ZM416,488H96V472H416Zm-14.39-32H361.28a1381.371,1381.371,0,0,0,14.49-176h47.88A920.566,920.566,0,0,1,401.61,456ZM448,264H311.42a57.174,57.174,0,0,0,.58-8,55.49,55.49,0,0,0-.58-8H448Z"/></svg>
