<?xml version="1.0" encoding="UTF-8" standalone="no"?>
<svg
   xmlns:dc="http://purl.org/dc/elements/1.1/"
   xmlns:cc="http://creativecommons.org/ns#"
   xmlns:rdf="http://www.w3.org/1999/02/22-rdf-syntax-ns#"
   xmlns:svg="http://www.w3.org/2000/svg"
   xmlns="http://www.w3.org/2000/svg"
   xmlns:sodipodi="http://sodipodi.sourceforge.net/DTD/sodipodi-0.dtd"
   xmlns:inkscape="http://www.inkscape.org/namespaces/inkscape"
   version="1.1"
   id="Capa_1"
   x="0px"
   y="0px"
   viewBox="0 0 31.680664 23.374468"
   xml:space="preserve"
   sodipodi:docname="perfil.svg"
   inkscape:version="1.0.1 (3bc2e813f5, 2020-09-07)"
   width="31.680664"
   height="23.374468"><metadata
   id="metadata112"><rdf:RDF><cc:Work
       rdf:about=""><dc:format>image/svg+xml</dc:format><dc:type
         rdf:resource="http://purl.org/dc/dcmitype/StillImage" /><dc:title></dc:title></cc:Work></rdf:RDF></metadata><defs
   id="defs110"><clipPath
     clipPathUnits="userSpaceOnUse"
     id="clipPath129"><rect
       style="fill:#0000ff;fill-rule:evenodd"
       id="rect131"
       width="55.514362"
       height="23.374468"
       x="3.5061703"
       y="0" /></clipPath><clipPath
     clipPathUnits="userSpaceOnUse"
     id="clipPath129-4"><rect
       style="fill:#0000ff;fill-rule:evenodd"
       id="rect131-0"
       width="55.514362"
       height="23.374468"
       x="3.5061703"
       y="0" /></clipPath></defs><sodipodi:namedview
   pagecolor="#ffffff"
   bordercolor="#666666"
   borderopacity="1"
   objecttolerance="10"
   gridtolerance="10"
   guidetolerance="10"
   inkscape:pageopacity="0"
   inkscape:pageshadow="2"
   inkscape:window-width="1258"
   inkscape:window-height="707"
   id="namedview108"
   showgrid="false"
   inkscape:zoom="8.5563444"
   inkscape:cx="15.8985"
   inkscape:cy="21.371297"
   inkscape:window-x="67"
   inkscape:window-y="200"
   inkscape:window-maximized="0"
   inkscape:current-layer="g75"
   inkscape:document-rotation="0"
   fit-margin-top="0"
   fit-margin-left="0"
   fit-margin-right="0"
   fit-margin-bottom="0" />
<g
   id="g75"
   style="display:inline"
   transform="translate(-14.313,-2.2205746)">
	
<g
   id="g73"
   style="display:inline"
   transform="translate(-0.05810407,2.2205746)"><path
     style="fill:#010002"
     d="M 45.247,3.216 C 44.729,0.748 42.19,0.674 40.614,1.936 L 33.823,0 33.677,0.519 38.338,1.848 c -0.087,0.017 -0.174,0.037 -0.263,0.064 -1.329,0.422 -0.286,1.412 -1.704,1.522 -1.417,0.11 -2.575,1.397 -2.575,1.397 l 0.041,0.073 -1.049,-0.142 -0.074,0.535 6.896,0.937 c 0.377,2.077 0.416,3.449 0.252,5.294 -3.117,0.363 -6.27,0.623 -9.329,-0.159 -0.791,-0.203 -1.468,-0.105 -2.015,0.181 -0.721,0.016 -1.458,0.288 -2.102,0.915 -4.209,4.106 -8.07,8.516 -11.439,13.338 -2.253,3.227 2.338,7.353 4.61,4.098 1.729,-2.475 3.59,-4.839 5.558,-7.111 0.842,4.039 1.185,7.237 1.661,11.718 l 0.082,0.763 c 0.015,0.146 0.042,0.283 0.065,0.422 l -0.094,21.486 c -0.006,1.784 1.434,3.236 3.22,3.244 h 0.012 c 1.779,0 3.227,-1.438 3.232,-3.216 l 0.067,-15.466 4.392,15.371 c 0.406,1.416 1.701,2.344 3.104,2.344 0.294,0 0.595,-0.039 0.89,-0.126 1.715,-0.489 2.711,-2.277 2.221,-3.994 L 38.351,35.565 c 0.023,-0.358 0.021,-0.729 -0.021,-1.111 -0.634,-5.932 -1.166,-10.38 -2.546,-16.432 2.369,-0.073 4.742,-0.379 7.082,-0.645 1.291,-0.147 2.632,-1.082 2.802,-2.471 0.582,-4.679 0.548,-7.045 -0.421,-11.69 z"
     id="path69"
     clip-path="url(#clipPath129-4)" /><circle
     style="fill:#010002"
     cx="26.35"
     cy="5.9000001"
     r="5.1399999"
     id="circle71" /></g></g>
<g
   id="g77"
   transform="translate(-14.312732,-2.2205746)">
</g>
<g
   id="g79"
   transform="translate(-14.312732,-2.2205746)">
</g>
<g
   id="g81"
   transform="translate(-14.312732,-2.2205746)">
</g>
<g
   id="g83"
   transform="translate(-14.312732,-2.2205746)">
</g>
<g
   id="g85"
   transform="translate(-14.312732,-2.2205746)">
</g>
<g
   id="g87"
   transform="translate(-14.312732,-2.2205746)">
</g>
<g
   id="g89"
   transform="translate(-14.312732,-2.2205746)">
</g>
<g
   id="g91"
   transform="translate(-14.312732,-2.2205746)">
</g>
<g
   id="g93"
   transform="translate(-14.312732,-2.2205746)">
</g>
<g
   id="g95"
   transform="translate(-14.312732,-2.2205746)">
</g>
<g
   id="g97"
   transform="translate(-14.312732,-2.2205746)">
</g>
<g
   id="g99"
   transform="translate(-14.312732,-2.2205746)">
</g>
<g
   id="g101"
   transform="translate(-14.312732,-2.2205746)">
</g>
<g
   id="g103"
   transform="translate(-14.312732,-2.2205746)">
</g>
<g
   id="g105"
   transform="translate(-14.312732,-2.2205746)">
</g>
</svg>
