<svg height="480pt" viewBox="0 0 480 480" width="480pt" xmlns="http://www.w3.org/2000/svg"><path d="m472 224h-16.511719c-2.417969-21.511719-14.371093-40.800781-32.558593-52.535156l-6.496094-123.554688c4.226562-.199218 7.554687-3.679687 7.566406-7.910156v-32c0-4.417969-3.582031-8-8-8h-64c-4.417969 0-8 3.582031-8 8v32c.011719 4.230469 3.339844 7.710938 7.566406 7.910156l-6.496094 123.554688c-18.1875 11.734375-30.140624 31.023437-32.558593 52.535156h-1.023438c-2.417969-21.511719-14.371093-40.800781-32.558593-52.535156l-6.496094-123.554688c4.226562-.199218 7.554687-3.679687 7.566406-7.910156v-32c0-4.417969-3.582031-8-8-8h-64c-4.417969 0-8 3.582031-8 8v32c.011719 4.230469 3.339844 7.710938 7.566406 7.910156l-6.496094 123.554688c-18.1875 11.734375-30.140624 31.023437-32.558593 52.535156h-1.023438c-2.417969-21.511719-14.371093-40.800781-32.558593-52.535156l-6.496094-123.554688c4.226562-.199218 7.554687-3.679687 7.566406-7.910156v-32c0-4.417969-3.582031-8-8-8h-64c-4.417969 0-8 3.582031-8 8v32c.011719 4.230469 3.339844 7.710938 7.566406 7.910156l-6.496094 123.554688c-18.1875 11.734375-30.140624 31.023437-32.558593 52.535156h-16.511719c-4.417969 0-8 3.582031-8 8v240c0 4.417969 3.582031 8 8 8h464c4.417969 0 8-3.582031 8-8v-240c0-4.417969-3.582031-8-8-8zm-112-208h48v16h-48zm-3.257812 167.113281c2.402343-1.34375 3.945312-3.824219 4.089843-6.570312l6.761719-128.542969h32.796875l6.808594 128.542969c.144531 2.746093 1.6875 5.226562 4.089843 6.570312 15.210938 8.519531 25.597657 23.628907 28.101563 40.886719h-110.78125c2.511719-17.261719 12.910156-32.375 28.132813-40.886719zm-140.742188-167.113281h48v16h-48zm-3.257812 167.113281c2.402343-1.34375 3.945312-3.824219 4.089843-6.570312l6.761719-128.542969h32.796875l6.808594 128.542969c.144531 2.746093 1.6875 5.226562 4.089843 6.570312 15.210938 8.519531 25.597657 23.628907 28.101563 40.886719h-110.78125c2.511719-17.261719 12.910156-32.375 28.132813-40.886719zm-140.742188-167.113281h48v16h-48zm-3.257812 167.113281c2.402343-1.34375 3.945312-3.824219 4.089843-6.570312l6.761719-128.542969h32.796875l6.808594 128.542969c.144531 2.746093 1.6875 5.226562 4.089843 6.570312 15.210938 8.519531 25.597657 23.628907 28.101563 40.886719h-110.78125c2.511719-17.261719 12.910156-32.375 28.132813-40.886719zm395.257812 280.886719h-448v-80h172.449219c7.574219 13.5 23.871093 19.445312 38.359375 13.992188-3.914063 9.449218-10.089844 18.007812-18.808594 18.007812-4.417969 0-8 3.582031-8 8s3.582031 8 8 8c13.3125-.742188 25.042969-8.984375 30.257812-21.257812 5.671876 18.515624 15.925782 37.257812 33.742188 37.257812 4.417969 0 8-3.582031 8-8s-3.582031-8-8-8c-9.65625 0-17.03125-18.265625-20.929688-34.777344 14.886719 6.683594 32.414063.957032 40.480469-13.222656h172.449219zm-264-96c0-8.835938 7.164062-16 16-16s16 7.164062 16 16-7.164062 16-16 16-16-7.164062-16-16zm48 0c0-8.835938 7.164062-16 16-16s16 7.164062 16 16-7.164062 16-16 16-16-7.164062-16-16zm216 0h-168c.058594-13.34375-8.203125-25.3125-20.703125-29.984375-12.496094-4.675781-26.585937-1.066406-35.296875 9.039063-8.710938-10.105469-22.800781-13.714844-35.296875-9.039063-12.5 4.671875-20.761719 16.640625-20.703125 29.984375h-168v-128h448zm0 0"/><path d="m200 320h80c13.253906 0 24-10.746094 24-24s-10.746094-24-24-24h-80c-13.253906 0-24 10.746094-24 24s10.746094 24 24 24zm0-32h80c4.417969 0 8 3.582031 8 8s-3.582031 8-8 8h-80c-4.417969 0-8-3.582031-8-8s3.582031-8 8-8zm0 0"/></svg>