<?xml version="1.0" encoding="utf-8"?>
<!-- Svg Vector Icons : http://www.onlinewebfonts.com/icon -->
<!DOCTYPE svg PUBLIC "-//W3C//DTD SVG 1.1//EN" "http://www.w3.org/Graphics/SVG/1.1/DTD/svg11.dtd">
<svg version="1.1" xmlns="http://www.w3.org/2000/svg" xmlns:xlink="http://www.w3.org/1999/xlink" x="0px" y="0px" viewBox="0 0 1000 1000" enable-background="new 0 0 1000 1000" xml:space="preserve">
<metadata> Svg Vector Icons : http://www.onlinewebfonts.com/icon </metadata>
<g><g transform="translate(0.000000,511.000000) scale(0.100000,-0.100000)"><path d="M3226.1,4987.3c-153.5-36.3-326.5-187-396.2-351.6c-120-279-214.9-1040.8-262.3-2095.5c-55.8-1291.9,5.6-1704.9,435.3-2901.9c94.9-273.4,212.1-627.8,256.7-786.9c78.1-279,80.9-320.9,80.9-851c0-650.1-22.3-789.7-240-1442.6c-125.6-376.7-142.3-446.4-131.1-594.3c25.1-306.9,206.5-560.8,493.9-694.8c125.6-55.8,164.6-58.6,1537.5-58.6h1409.1l159.1,78.1c267.9,131.2,438.1,379.5,463.2,675.3c11.2,150.7-2.8,217.6-128.3,586c-200.9,594.3-231.6,761.7-248.3,1325.4c-19.5,689.2,0,792.5,418.6,1981.1c343.2,982.2,413,1470.5,360,2617.3c-44.7,971-153.5,1897.4-245.5,2123.4c-64.2,153.5-170.2,276.2-298.6,346l-117.2,61.4l-1716,5.6C4066,5012.4,3293.1,5001.2,3226.1,4987.3z M6686.1,4568.7c39.1-19.5,89.3-72.6,108.8-120c75.3-159,214.9-1275.2,214.9-1696.5v-189.7h-2009h-2009v189.7c0,421.3,139.5,1540.3,214.9,1696.5c22.3,47.4,67,100.4,100.4,117.2C3396.3,4607.8,6591.2,4610.6,6686.1,4568.7z M7029.3,1650c-25.1-717.1-44.7-800.8-530.2-2215.5c-228.8-669.7-256.7-831.5-253.9-1476.1c2.8-613.9,53-906.8,251.1-1434.2c111.6-295.8,125.6-360,117.2-510.6c-8.4-136.7-25.1-189.7-78.1-248.3c-139.5-150.7-145.1-150.7-1534.7-150.7c-1409.1,0-1403.5,0-1543,164.6c-120,142.3-106,334.8,47.4,747.8c203.7,541.3,251.1,817.6,251.1,1473.3c2.8,672.5-25.1,800.8-371.1,1774.7c-340.4,965.4-421.3,1342.1-421.3,2000.6v368.3h2039.7H7046L7029.3,1650z"/></g></g>
</svg>